<svg width="339" height="190" viewBox="0 0 339 190" fill="none" xmlns="http://www.w3.org/2000/svg">
<ellipse cx="169.5" cy="106.913" rx="169.5" ry="70" fill="#921813"/>
<path d="M209.212 105.941L208.397 110.336C204.864 129.381 189.499 163.204 124.745 151.194L118.299 149.998C53.8383 138.042 51.3038 101.051 54.8634 81.859L55.6786 77.464C59.2654 58.1258 74.7612 25.2362 139.222 37.1921L145.668 38.3877C210.275 50.3708 212.799 86.6027 209.212 105.941ZM172.895 102.387L173.276 100.336C175.558 88.0302 170.929 70.502 137.527 64.3067C103.538 58.0026 93.5172 72.8135 91.2347 85.1196L90.9087 86.8776C88.6262 99.1837 93.2116 117.765 126.467 123.933C159.723 130.101 170.585 114.84 172.895 102.387ZM243.335 101.359L217.99 96.658L221.794 76.1478C240.764 78.4539 251.103 71.7337 258.203 61.2304L284.866 66.1758L264.65 175.173L230.808 168.896L243.335 101.359Z" fill="white"/>
</svg>
