<svg width="367" height="203" viewBox="0 0 367 203" fill="none" xmlns="http://www.w3.org/2000/svg">
<ellipse cx="169.5" cy="106.913" rx="169.5" ry="70" fill="#921813"/>
<path d="M209.212 105.941L208.397 110.336C204.864 129.381 189.499 163.204 124.745 151.194L118.299 149.998C53.8383 138.042 51.3038 101.051 54.8634 81.859L55.6786 77.464C59.2654 58.1258 74.7612 25.2362 139.222 37.1921L145.668 38.3877C210.275 50.3708 212.799 86.6027 209.212 105.941ZM172.895 102.387L173.276 100.336C175.558 88.0302 170.929 70.502 137.527 64.3067C103.538 58.0026 93.5172 72.8135 91.2347 85.1196L90.9087 86.8776C88.6262 99.1837 93.2116 117.765 126.467 123.933C159.723 130.101 170.585 114.84 172.895 102.387ZM336.944 188.582L203.921 163.909L206.203 151.603C209.192 135.488 216.633 111.712 269.132 110.538L295.602 109.992C310.914 109.953 312.776 107.268 313.401 103.898C314.189 99.6497 311.554 95.0692 287.527 90.6129C260.132 85.5316 255.94 95.059 254.495 100.398L218.895 93.795L219.112 92.623C221.422 80.1704 231.669 54.3389 288.072 64.8003L293.932 65.8872C345.207 75.3976 352.593 93.5885 349.386 110.876L349.332 111.169C346.289 127.577 338.06 136.81 301.227 136.04L270.417 135.478C243.763 135.383 239.746 140.7 239.175 143.777L308.177 156.575L310.786 142.511L344.335 148.733L336.944 188.582Z" fill="white"/>
</svg>
