<svg width="370" height="203" viewBox="0 0 370 203" fill="none" xmlns="http://www.w3.org/2000/svg">
<ellipse cx="169.5" cy="106.913" rx="169.5" ry="70" fill="#921813"/>
<path d="M209.212 105.941L208.397 110.336C204.865 129.381 189.499 163.204 124.745 151.194L118.299 149.998C53.8384 138.042 51.3039 101.051 54.8635 81.859L55.6787 77.464C59.2655 58.1258 74.7613 25.2362 139.222 37.1921L145.668 38.3877C210.275 50.3708 212.799 86.6027 209.212 105.941ZM172.895 102.387L173.276 100.336C175.558 88.0302 170.929 70.502 137.527 64.3067C103.538 58.0026 93.5173 72.8135 91.2348 85.1196L90.9087 86.8776C88.6262 99.1837 93.2116 117.765 126.467 123.933C159.723 130.101 170.585 114.84 172.895 102.387ZM276.31 179.306L269.424 178.028C210.091 167.024 209.986 136.544 212.051 125.41L212.268 124.238L248.161 130.895C248.084 133.76 247.142 147.83 277.175 153.401C308.233 159.161 311.431 151.723 312.246 147.328C313.034 143.079 311.478 138.396 298.586 136.005L260.056 128.858L264.757 103.514L301.529 110.334C313.688 112.589 316.392 109.454 317.071 105.791C317.805 101.836 316.493 95.8338 286.607 90.2906C257.453 84.8833 255.285 94.9375 254.411 97.2L218.811 90.5971L219.083 89.1321C220.931 79.17 230.135 54.0544 288.003 64.7876L294.156 65.9288C352.464 76.7435 356.16 94.4016 353.986 106.122L353.823 107.001C351.703 118.428 340.215 122.359 332.884 122.666C341.093 126.613 351.866 136.34 348.742 153.188L348.551 154.213C345.155 172.526 330.076 189.278 276.31 179.306Z" fill="white"/>
</svg>
