<svg width="45" height="45" viewBox="0 0 45 45" fill="none" xmlns="http://www.w3.org/2000/svg">
<path d="M22.5407 0H22.5326C10.1287 0 0.0732422 10.0554 0.0732422 22.4594V22.4674C0.0732422 34.8714 10.1287 44.9268 22.5326 44.9268H22.5407C34.9446 44.9268 45 34.8714 45 22.4674V22.4594C45 10.0554 34.9446 0 22.5407 0Z" fill="#279EDF"/>
<path d="M10.4564 21.7696L25.5818 15.5349C27.0742 14.885 32.1374 12.8067 32.1374 12.8067C32.1374 12.8067 34.4724 11.9 34.2799 14.1066C34.2157 15.0134 33.6941 18.1989 33.1725 21.6332L31.5517 31.8238C31.5517 31.8238 31.4233 33.3163 30.316 33.5731C29.2086 33.8298 27.3952 32.6663 27.0662 32.4015C26.8094 32.209 22.1956 29.2882 20.5105 27.8599C20.0532 27.4667 19.5396 26.6884 20.5747 25.7817C22.9097 23.6392 25.7021 20.9753 27.3872 19.2902C28.1655 18.5119 28.9438 16.6904 25.7021 18.897L16.5466 25.0675C16.5466 25.0675 15.5115 25.7175 13.5617 25.1317C11.6118 24.546 9.34103 23.7676 9.34103 23.7676C9.34103 23.7676 7.78436 22.7967 10.4484 21.7536L10.4564 21.7696Z" fill="white"/>
</svg>
