<svg width="44" height="45" viewBox="0 0 44 45" fill="none" xmlns="http://www.w3.org/2000/svg">
<path d="M34.8055 0.964844H9.1945C4.11652 0.964844 0 5.08136 0 10.1593V35.7703C0 40.8483 4.11652 44.9648 9.1945 44.9648H34.8055C39.8835 44.9648 44 40.8483 44 35.7703V10.1593C44 5.08136 39.8835 0.964844 34.8055 0.964844Z" fill="url(#paint0_linear_234_600)"/>
<path d="M16.558 22.9609C16.558 19.9589 18.9941 17.5228 21.9961 17.5228C24.998 17.5228 27.4342 19.9589 27.4342 22.9609C27.4342 25.9629 24.998 28.399 21.9961 28.399C18.9941 28.399 16.558 25.9629 16.558 22.9609ZM13.6189 22.9609C13.6189 27.5896 17.3752 31.346 22.0039 31.346C26.6326 31.346 30.389 27.5896 30.389 22.9609C30.389 18.3322 26.6326 14.5758 22.0039 14.5758C17.3752 14.5758 13.6189 18.3322 13.6189 22.9609ZM28.7544 14.2536C28.7544 15.3381 29.6346 16.2104 30.7112 16.2104C31.7878 16.2104 32.668 15.3303 32.668 14.2536C32.668 13.177 31.7878 12.2969 30.7112 12.2969C29.6346 12.2969 28.7544 13.177 28.7544 14.2536ZM15.4028 36.2497C13.8075 36.179 12.943 35.9118 12.3694 35.6918C11.6071 35.3931 11.0648 35.0395 10.4912 34.4737C9.91749 33.9 9.56385 33.3578 9.27308 32.5955C9.04519 32.0218 8.78585 31.1574 8.71513 29.5621C8.63654 27.8411 8.62082 27.3224 8.62082 22.9688C8.62082 18.6151 8.63654 18.0965 8.71513 16.3755C8.78585 14.7802 9.05305 13.9236 9.27308 13.3421C9.57171 12.5798 9.92534 12.0375 10.4912 11.4639C11.0648 10.8902 11.6071 10.5366 12.3694 10.2458C12.943 10.0179 13.8075 9.75856 15.4028 9.68783C17.1238 9.60924 17.6424 9.59353 21.9961 9.59353C26.3497 9.59353 26.8684 9.60924 28.5894 9.68783C30.1847 9.75856 31.0413 10.0257 31.6228 10.2458C32.3851 10.5444 32.9273 10.898 33.501 11.4639C34.0747 12.0375 34.4283 12.5798 34.7191 13.3421C34.947 13.9157 35.2063 14.7802 35.277 16.3755C35.3556 18.0965 35.3713 18.6151 35.3713 22.9688C35.3713 27.3224 35.3556 27.8411 35.277 29.5621C35.2063 31.1574 34.9391 32.0218 34.7191 32.5955C34.4204 33.3578 34.0668 33.9 33.501 34.4737C32.9273 35.0474 32.3851 35.401 31.6228 35.6918C31.0491 35.9197 30.1847 36.179 28.5894 36.2497C26.8684 36.3283 26.3497 36.344 21.9961 36.344C17.6424 36.344 17.1238 36.3283 15.4028 36.2497ZM15.2692 6.74088C13.5324 6.81946 12.3458 7.09451 11.3084 7.4953C10.2318 7.9118 9.32809 8.46976 8.4165 9.38135C7.51277 10.2851 6.94695 11.1967 6.53045 12.2733C6.12967 13.3106 5.85462 14.4973 5.77603 16.234C5.69745 17.9707 5.67387 18.5287 5.67387 22.9609C5.67387 27.3931 5.68959 27.9511 5.77603 29.6878C5.85462 31.4246 6.12967 32.6112 6.53045 33.6485C6.94695 34.7252 7.50491 35.6367 8.4165 36.5405C9.32024 37.4442 10.2318 38.0022 11.3084 38.4265C12.3458 38.8273 13.5324 39.1024 15.2692 39.181C17.0138 39.2595 17.5639 39.2831 21.9961 39.2831C26.4283 39.2831 26.9862 39.2674 28.723 39.181C30.4597 39.1024 31.6464 38.8273 32.6837 38.4265C33.7603 38.01 34.664 37.4521 35.5756 36.5405C36.4794 35.6367 37.0373 34.7252 37.4617 33.6485C37.8625 32.6112 38.1454 31.4246 38.2161 29.6878C38.2947 27.9432 38.3104 27.3931 38.3104 22.9609C38.3104 18.5287 38.2947 17.9707 38.2161 16.234C38.1375 14.4973 37.8625 13.3106 37.4617 12.2733C37.0452 11.1967 36.4872 10.2929 35.5756 9.38135C34.6719 8.47761 33.7603 7.9118 32.6837 7.4953C31.6464 7.09451 30.4597 6.8116 28.723 6.74088C26.9862 6.66229 26.4283 6.63871 21.9961 6.63871C17.5639 6.63871 17.0059 6.65443 15.2613 6.74088" fill="white"/>
<defs>
<linearGradient id="paint0_linear_234_600" x1="0" y1="22.9609" x2="44" y2="22.9609" gradientUnits="userSpaceOnUse">
<stop stop-color="#B000AA"/>
<stop offset="1" stop-color="#DE002B"/>
</linearGradient>
</defs>
</svg>
