<svg width="44" height="45" viewBox="0 0 44 45" fill="none" xmlns="http://www.w3.org/2000/svg">
<path d="M0 22.0836C0 12.1296 7.30785e-07 7.15641 3.09579 4.06063C6.19157 0.964844 11.1648 0.964844 21.1188 0.964844H22.8812C32.8353 0.964844 37.8084 0.964844 40.9042 4.06063C44 7.15641 44 12.1296 44 22.0836V23.8461C44 33.8001 44 38.7733 40.9042 41.8691C37.8084 44.9648 32.8353 44.9648 22.8812 44.9648H21.1188C11.1648 44.9648 6.19157 44.9648 3.09579 41.8691C7.30785e-07 38.7733 0 33.8001 0 23.8461V22.0836Z" fill="#0077FF"/>
<path d="M23.41 32.6583C13.387 32.6583 7.66283 25.7848 7.42528 14.3442H12.4444C12.613 22.7426 16.3142 26.2982 19.2414 27.0261V14.3442H23.9693V21.5855C26.8659 21.2714 29.908 17.9763 30.9349 14.3442H35.6628C34.8736 18.8193 31.5785 22.1143 29.2261 23.4706C31.5709 24.574 35.3333 27.4476 36.7586 32.6507H31.5556C30.4368 29.1717 27.6552 26.4744 23.9693 26.1066V32.6507H23.4023L23.41 32.6583Z" fill="white"/>
</svg>
