<svg width="136" height="67" viewBox="0 0 136 67" fill="none" xmlns="http://www.w3.org/2000/svg">
<path fill-rule="evenodd" clip-rule="evenodd" d="M15.7616 66.961H120.6C128.944 66.961 135.709 60.253 135.709 51.9785V14.9825C135.709 6.70806 128.944 0 120.6 0H15.7616C7.41701 0 0.6521 6.70806 0.6521 14.9825V51.9785C0.6521 60.253 7.41701 66.961 15.7616 66.961ZM104.589 51.8936V44.1142H106.798V46.8811H108.52C109.21 46.8811 110.08 47.0772 110.623 47.6703C110.968 48.029 111.222 48.5695 111.222 49.3419C111.222 50.3666 110.769 50.9956 110.39 51.3184C109.808 51.8207 109.156 51.8924 108.63 51.8924L104.589 51.8936ZM15.7604 51.8936V44.113H17.972V48.9114L21.5968 44.113H23.8071V51.8936H21.598V47.0951L17.9732 51.8936H15.7604ZM25.7715 51.8948V44.1142H27.9818V46.8643H31.0628V44.1142H33.2732V51.8948H31.064V48.7321H27.9831V51.8948H25.7715ZM38.749 43.8607C39.5642 43.8607 40.2346 44.0233 40.8689 44.3282H40.8713V46.4829C40.3999 46.0524 39.8198 45.8001 39.0577 45.8001C37.5902 45.8001 36.8474 46.8608 36.8474 47.9919C36.8474 49.269 37.8084 50.204 39.1313 50.204C39.6197 50.204 40.272 50.0605 40.8701 49.5201V51.6592C40.436 51.8745 39.7475 52.1435 38.8407 52.1435C37.6095 52.1435 36.5206 51.6772 35.8139 51.0123C35.2158 50.4563 34.5635 49.4854 34.5635 48.0302C34.5635 46.6635 35.1254 45.567 35.9225 44.8663C36.8823 44.0233 37.9869 43.8607 38.749 43.8607ZM48.5708 44.1118V45.9819H46.3942V51.8948H44.1839V45.9819H42.0097V44.113H48.5696L48.5708 44.1118ZM54.459 52.1447C53.9164 52.1447 52.8094 52.055 51.94 50.888V56.0105H49.7296V44.113H51.94V45.1198C52.2849 44.6343 53.0446 43.8619 54.4952 43.8619C55.1838 43.8619 56.2895 44.0245 57.1771 44.9045C57.7559 45.4785 58.3552 46.4494 58.3552 47.9955C58.3552 49.7556 57.5762 50.7086 57.124 51.1403C56.5247 51.6951 55.6191 52.1447 54.459 52.1447ZM55.4032 46.3597C55.0053 45.9998 54.4241 45.8025 53.8983 45.8025C53.3171 45.8025 52.8649 45.964 52.4657 46.3251C51.9762 46.7388 51.7229 47.2769 51.7229 47.9967C51.7229 48.7141 52.0123 49.3072 52.4477 49.6851C52.7371 49.9362 53.2098 50.2064 53.8983 50.2064C54.6218 50.2064 55.0933 49.9182 55.3839 49.6492C55.8542 49.2163 56.0725 48.5695 56.0725 47.9955C56.0725 47.4216 55.8373 46.7735 55.4032 46.3597ZM61.5664 56.0093H59.0654L61.9475 50.7266L58.2141 44.1142H60.7874L63.216 48.5348L65.3902 44.1142H67.8912L61.5664 56.0093ZM69.665 51.8948H67.4535L68.8824 44.1142H70.5139L72.6712 48.5886L74.8285 44.1142H76.4601L77.8914 51.8948H75.6799L75.0287 47.6727L73.0716 51.8948H72.2745L70.3174 47.6727L69.665 51.8948ZM82.8656 50.4216C83.6977 50.4216 84.3332 50.0271 84.6949 49.3969L86.7256 49.7209C86.4905 50.2973 85.6017 52.1483 82.8656 52.1483C81.5958 52.1483 80.6348 51.7872 79.8558 51.0506C78.9876 50.2423 78.6246 49.2367 78.6246 48.0134C78.6246 46.4686 79.2589 45.5156 79.8208 44.9583C80.7445 44.0603 81.8322 43.8619 82.7752 43.8619C84.3693 43.8619 85.2954 44.492 85.8381 45.1389C86.6725 46.1266 86.7811 47.3486 86.7811 48.1928V48.3722H80.9085C80.9085 48.8397 81.0351 49.3431 81.2896 49.6851C81.5247 50.0079 82.0131 50.4216 82.8656 50.4216ZM82.8295 45.4079C82.0131 45.4079 81.1605 45.9281 80.9796 46.9708H84.6949C84.514 45.9113 83.6446 45.4079 82.8295 45.4079ZM90.4168 51.8948H88.2052V44.1142H90.4168V46.8643H93.4977V44.1142H95.7081V51.8948H93.4977V48.7321H90.4168V51.8948ZM103.428 44.113V45.9819H101.254V51.8948H99.0423V45.9819H96.8681V44.113H103.428ZM106.798 48.6053V50.1682H107.832C108.068 50.1682 108.413 50.1514 108.648 49.972C108.793 49.8632 108.938 49.648 108.938 49.3419C108.938 49.0549 108.793 48.8756 108.648 48.7847C108.412 48.6233 108.085 48.6053 107.886 48.6053H106.798ZM112.056 51.8936V44.113H114.266V51.8936H112.056ZM113.05 37.0856C114.05 37.0981 115.042 36.9135 115.969 36.5427C116.897 36.1719 117.741 35.6221 118.452 34.9254C119.164 34.2286 119.729 33.3987 120.114 32.4838C120.5 31.5689 120.698 30.5871 120.698 29.5956C120.698 28.604 120.499 27.6223 120.114 26.7074C119.728 25.7926 119.163 24.9628 118.451 24.2661C117.74 23.5695 116.896 23.0199 115.968 22.6492C115.041 22.2785 114.048 22.0941 113.048 22.1067C111.062 22.1316 109.165 22.9316 107.769 24.3335C106.373 25.7353 105.59 27.6261 105.59 29.5962C105.59 31.5663 106.373 33.457 107.769 34.8589C109.165 36.2607 111.063 37.0607 113.05 37.0856ZM114.254 33.7448H115.666L119.238 27.0283H117.826L116.599 29.525L115.227 27.0283H113.774L115.882 30.7614L114.254 33.7448ZM106.621 30.7614C106.621 31.2074 106.971 31.553 107.421 31.553C107.526 31.5544 107.63 31.535 107.728 31.4957C107.825 31.4564 107.914 31.3982 107.988 31.3244C108.063 31.2506 108.122 31.1627 108.161 31.066C108.201 30.9693 108.22 30.8658 108.219 30.7614C108.22 30.6571 108.201 30.5535 108.161 30.4568C108.122 30.3601 108.063 30.2723 107.988 30.1985C107.914 30.1247 107.825 30.0664 107.728 30.0271C107.63 29.9879 107.526 29.9684 107.421 29.9698C107.315 29.9684 107.211 29.9879 107.113 30.0271C107.016 30.0664 106.927 30.1247 106.853 30.1985C106.779 30.2723 106.72 30.3601 106.68 30.4568C106.641 30.5535 106.62 30.6571 106.621 30.7614ZM110.31 30.8547V33.7448H109.062V27.0283H110.31V27.5963C110.505 27.3225 110.935 26.886 111.753 26.886C112.142 26.886 112.766 26.9769 113.267 27.4743C113.593 27.7972 113.931 28.3472 113.931 29.2201C113.931 30.2138 113.491 30.7507 113.235 30.9946C112.898 31.3103 112.386 31.5626 111.732 31.5626C111.425 31.5626 110.802 31.5123 110.31 30.8547ZM111.413 27.9813C111.711 27.9813 112.038 28.0925 112.263 28.297C112.509 28.529 112.641 28.8949 112.641 29.2189C112.641 29.5442 112.519 29.9089 112.253 30.1516C112.026 30.3622 111.724 30.4756 111.413 30.4673C111.025 30.4673 110.759 30.3142 110.596 30.1731C110.462 30.0525 110.357 29.9049 110.286 29.7403C110.215 29.5756 110.181 29.3978 110.186 29.2189C110.186 28.8124 110.33 28.5098 110.607 28.2767C110.826 28.0763 111.115 27.9702 111.413 27.9813ZM43.5327 26.8382V22.9497C42.3883 22.3985 41.1813 22.1079 39.7101 22.1091C38.3378 22.1091 36.3457 22.4009 34.6129 23.9242C33.1743 25.1869 32.1614 27.1635 32.1614 29.6267C32.1614 32.2501 33.3371 34.0007 34.4151 35.0051C35.6897 36.2032 37.6505 37.045 39.8729 37.045C41.1451 37.0435 42.399 36.7444 43.5327 36.1721V32.3159C42.4534 33.2868 41.2777 33.5463 40.395 33.5463C38.0086 33.5463 36.277 31.8603 36.277 29.5609C36.277 27.5186 37.6167 25.6078 40.2648 25.6078C41.6383 25.6078 42.6838 26.0598 43.5327 26.8382ZM28.6005 34.8413C30.1042 33.5128 30.4635 31.73 30.4635 30.4673C30.4635 29.3325 30.203 27.6477 28.8935 26.4173C28.3388 25.8996 27.4898 25.2838 26.0513 25.0566C26.6397 24.7337 28.5028 23.5978 28.5028 20.8117C28.5028 18.9966 27.7515 17.3118 26.4769 16.3397C24.7115 14.9789 22.3577 14.9789 21.1494 14.9789H15.7592V36.5918H23.0788C24.9732 36.5918 26.9653 36.2678 28.6005 34.8413ZM21.2157 23.9541H20.0075V18.4143H21.2495C22.9811 18.4143 24.5174 19.1592 24.5174 21.1358C24.5174 23.8895 21.8681 23.9541 21.2157 23.9541ZM24.4836 27.6166C25.8571 28.2324 26.085 29.3983 26.085 30.0798C26.085 30.9216 25.792 31.9571 24.7453 32.5753C23.7987 33.1254 22.6206 33.1577 21.8368 33.1577H20.0075V27.1957H21.5751C22.4891 27.1957 23.5684 27.1957 24.4836 27.6166ZM49.6874 30.2413H60.2749V29.9172C60.2749 28.3939 60.0796 26.1913 58.5771 24.4085C57.5967 23.2426 55.9302 22.1079 53.0542 22.1079C51.3551 22.1079 49.3944 22.4642 47.7279 24.0844C46.715 25.0889 45.5706 26.8059 45.5706 29.5932C45.5706 31.7957 46.2242 33.6108 47.793 35.0696C49.1966 36.3969 50.9283 37.045 53.217 37.045C58.1514 37.045 59.7528 33.7089 60.1773 32.671L56.5175 32.0875C55.8639 33.2222 54.7207 33.9349 53.217 33.9349C51.6807 33.9349 50.798 33.1899 50.3736 32.6064C49.9153 31.9894 49.6874 31.0831 49.6874 30.2413ZM53.1519 24.894C54.623 24.894 56.1907 25.8015 56.5162 27.7123H49.8189C50.1445 25.8338 51.6807 24.894 53.1519 24.894Z" fill="#757575"/>
</svg>
