<svg width="164" height="44" viewBox="0 0 164 44" fill="none" xmlns="http://www.w3.org/2000/svg">
<path d="M59.9849 43.6085V0.484253H85.8979C98.09 0.484253 105.393 5.76497 105.393 15.6334V15.809C105.393 25.8499 98.3243 31.83 86.1322 31.83H73.293V43.6117L59.9849 43.6085ZM73.2962 22.2513H85.2508C89.9024 22.2513 91.9658 19.9868 91.9658 15.9815V15.8644C91.9658 12.6139 90.0807 10.1184 85.3101 10.1184H73.2962V22.2513Z" fill="#757575"/>
<path d="M139.325 0.484253L123.769 40.6834V0.484253H111.223V43.6117L135.178 43.6085L150.738 3.4093V43.6117H163.283V0.484253H139.325Z" fill="#757575"/>
<path d="M29.0899 0.484253L13.5335 40.6834V0.484253H0.988037V43.6117L24.9466 43.6085L40.5029 3.4093V43.6117H53.0485V0.484253H29.0899Z" fill="#757575"/>
</svg>
