<?xml version="1.0" encoding="UTF-8"?>
<!DOCTYPE svg PUBLIC "-//W3C//DTD SVG 1.1//EN" "http://www.w3.org/Graphics/SVG/1.1/DTD/svg11.dtd">
<!-- Creator: CorelDRAW 2019 (64-Bit) -->
<svg xmlns="http://www.w3.org/2000/svg" xml:space="preserve" width="162.4mm" height="52.04mm" version="1.1" style="shape-rendering:geometricPrecision; text-rendering:geometricPrecision; image-rendering:optimizeQuality; fill-rule:evenodd; clip-rule:evenodd"
viewBox="0 0 16239.98 5204"
 xmlns:xlink="http://www.w3.org/1999/xlink"
 xmlns:xodm="http://www.corel.com/coreldraw/odm/2003">
 <defs>
  <style type="text/css">
   <![CDATA[
    .fil1 {fill:#FEFEFE}
    .fil0 {fill:#FEFEFE;fill-rule:nonzero}
   ]]>
  </style>
 </defs>
 <g id="Слой_x0020_1">
  <metadata id="CorelCorpID_0Corel-Layer"/>
  <g id="_1972653753760">
   <path class="fil0" d="M11516.32 1898.63l-216.06 -933.32 -1704.51 0 0 2942.89 1344.4 0 -60.02 -1324.3 80.03 0 376.11 1324.3 460.14 0 376.11 -1324.3 80.02 0 -60.02 1324.3 1344.4 0 0 -2942.89 -1704.5 0 -216.07 933.32 -100.03 0zm-3454.15 853.44l-441.44 1156.13 -1429.4 0 0 -2942.89 1387.36 0 -126.12 1059.44 105.1 0 487.83 -661.15 -0.35 -398.29 1383.36 0 0 2942.89 -1286.82 0 0 -1156.13 -79.52 0zm-8070.1 -384.09l0 137.23 0 1402.99 1387.37 0 -33.74 -744.45 529.93 0 -33.74 744.45 1387.37 0 0 -1402.99 0 -137.23 0 -1402.99 -1387.37 0 51.72 1141.22 -565.89 0 51.72 -1141.22 -1387.37 0 0 1402.99zm4791.79 -261.77l1098.84 0 -81.92 661.04 -1016.92 0 0 106.73 1112.09 0 128.13 1034.22 -2627.58 0 0 -1471.44 0 -1471.45 2627.58 0 -128.13 1034.22 -1112.09 0 0 106.68zm8920.31 -1140.9l0 2942.89 2528.01 0 -128.13 -1034.22 -1112.09 0 0 -874.45 1112.09 0 128.13 -1034.22 -2528.01 0z"/>
   <g>
    <path class="fil1" d="M7809.91 856.83l-538.47 -319.59c0,-304.37 0,-124.56 0,-428.93 325.58,-136.8 751.37,-136.8 1076.95,0 0,304.37 0,124.56 0,428.93l-538.48 319.59z"/>
   </g>
   <g>
    <path class="fil0" d="M183.47 4806.85c0,-82.41 0,-164.83 0,-247.24 -63.89,0 -127.78,0 -191.67,0 0,216.84 0,433.3 0,650.14 63.89,0 127.78,0 191.67,0 0,-120.02 0,-240.05 0,-360.07l-94.65 12.36 0 61.48 22.36 -2.94c0,72.3 0,144.59 0,216.88l-47.09 0c0,-168.59 0,-336.97 0,-505.56l47.09 0c0,61.46 0,122.93 0,184.39l72.29 -9.44z"/>
    <path class="fil1" d="M4195.65 5209.75l-72.28 0 0 -222.04 -21.51 -21.5 -25.59 0 0 243.54 -72.28 0c0,-216.76 0,-433.52 0,-650.29 63.88,0 127.77,0 191.66,0 0,114.25 0,228.5 0,342.75l-27.78 27.78 27.78 27.78c0,83.99 0,167.99 0,251.98zm-72.28 -337.49l0 -240.51 -47.1 0c0,87.39 0,174.78 0,262.17l25.44 0 21.66 -21.66z"/>
    <path class="fil1" d="M8207.83 4559.61c-63.89,0 -127.78,0 -191.66,0 0,216.72 0,433.43 0,650.14 63.88,0 127.77,0 191.66,0 0,-216.71 0,-433.42 0,-650.14zm-119.38 577.85c0,-168.52 0,-337.04 0,-505.56l47.09 0c0,168.52 0,337.04 0,505.56l-47.09 0z"/>
    <path class="fil1" d="M12147.72 4559.61l72.29 0 0 650.14c-63.89,0 -127.78,0 -191.66,0l0 -650.14 72.28 0 0 577.85 47.09 0 0 -577.85z"/>
    <path class="fil1" d="M16112.8 4893.92l25.2 0 21.89 -21.8 0 -240.37 -47.09 0c0,87.39 0,174.78 0,262.17zm0 72.29l0 243.54 -72.28 0c0,-216.76 0,-433.52 0,-650.29 63.88,0 127.77,0 191.66,0 0,114.25 0,228.5 0,342.75l-64.31 64 -55.07 0z"/>
    <g>
     <polygon class="fil1" points="12565.91,4921.66 12638.2,4921.66 12638.2,4849.38 12565.91,4849.38 "/>
     <polygon class="fil1" points="12947.97,4921.66 13020.26,4921.66 13020.26,4849.38 12947.97,4849.38 "/>
     <polygon class="fil1" points="13330.02,4921.66 13402.31,4921.66 13402.31,4849.38 13330.02,4849.38 "/>
     <polygon class="fil1" points="13712.08,4921.66 13784.36,4921.66 13784.36,4849.38 13712.08,4849.38 "/>
     <path class="fil1" d="M14094.13 4993.95l72.29 0c0,-72.29 0,-144.57 0,-216.86l-72.29 0c0,72.29 0,144.57 0,216.86z"/>
     <polygon class="fil1" points="14476.18,4921.66 14548.46,4921.66 14548.46,4849.38 14476.18,4849.38 "/>
     <polygon class="fil1" points="14858.23,4921.66 14930.51,4921.66 14930.51,4849.38 14858.23,4849.38 "/>
     <polygon class="fil1" points="15240.28,4921.66 15312.57,4921.66 15312.57,4849.38 15240.28,4849.38 "/>
     <polygon class="fil1" points="15622.33,4921.66 15694.61,4921.66 15694.61,4849.38 15622.33,4849.38 "/>
    </g>
    <g>
     <polygon class="fil1" points="529.38,4921.66 601.67,4921.66 601.67,4849.38 529.38,4849.38 "/>
     <polygon class="fil1" points="911.44,4921.66 983.73,4921.66 983.73,4849.38 911.44,4849.38 "/>
     <polygon class="fil1" points="1293.49,4921.66 1365.78,4921.66 1365.78,4849.38 1293.49,4849.38 "/>
     <polygon class="fil1" points="1675.55,4921.66 1747.83,4921.66 1747.83,4849.38 1675.55,4849.38 "/>
     <path class="fil1" d="M2057.6 4993.95l72.29 0c0,-72.29 0,-144.57 0,-216.86l-72.29 0c0,72.29 0,144.57 0,216.86z"/>
     <polygon class="fil1" points="2439.65,4921.66 2511.93,4921.66 2511.93,4849.38 2439.65,4849.38 "/>
     <polygon class="fil1" points="2821.7,4921.66 2893.98,4921.66 2893.98,4849.38 2821.7,4849.38 "/>
     <polygon class="fil1" points="3203.75,4921.66 3276.04,4921.66 3276.04,4849.38 3203.75,4849.38 "/>
     <polygon class="fil1" points="3585.8,4921.66 3658.08,4921.66 3658.08,4849.38 3585.8,4849.38 "/>
    </g>
    <g>
     <polygon class="fil1" points="8553.73,4921.66 8626.02,4921.66 8626.02,4849.38 8553.73,4849.38 "/>
     <polygon class="fil1" points="8935.79,4921.66 9008.08,4921.66 9008.08,4849.38 8935.79,4849.38 "/>
     <polygon class="fil1" points="9317.84,4921.66 9390.13,4921.66 9390.13,4849.38 9317.84,4849.38 "/>
     <polygon class="fil1" points="9699.9,4921.66 9772.18,4921.66 9772.18,4849.38 9699.9,4849.38 "/>
     <path class="fil1" d="M10081.95 4993.95l72.29 0c0,-72.29 0,-144.57 0,-216.86l-72.29 0c0,72.29 0,144.57 0,216.86z"/>
     <polygon class="fil1" points="10464,4921.66 10536.28,4921.66 10536.28,4849.38 10464,4849.38 "/>
     <polygon class="fil1" points="10846.05,4921.66 10918.33,4921.66 10918.33,4849.38 10846.05,4849.38 "/>
     <polygon class="fil1" points="11228.1,4921.66 11300.39,4921.66 11300.39,4849.38 11228.1,4849.38 "/>
     <polygon class="fil1" points="11610.15,4921.66 11682.43,4921.66 11682.43,4849.38 11610.15,4849.38 "/>
    </g>
    <g>
     <polygon class="fil1" points="4541.56,4921.66 4613.85,4921.66 4613.85,4849.38 4541.56,4849.38 "/>
     <polygon class="fil1" points="4923.62,4921.66 4995.91,4921.66 4995.91,4849.38 4923.62,4849.38 "/>
     <polygon class="fil1" points="5305.67,4921.66 5377.96,4921.66 5377.96,4849.38 5305.67,4849.38 "/>
     <polygon class="fil1" points="5687.73,4921.66 5760.01,4921.66 5760.01,4849.38 5687.73,4849.38 "/>
     <path class="fil1" d="M6069.78 4993.95l72.29 0c0,-72.29 0,-144.57 0,-216.86l-72.29 0c0,72.29 0,144.57 0,216.86z"/>
     <polygon class="fil1" points="6451.83,4921.66 6524.11,4921.66 6524.11,4849.38 6451.83,4849.38 "/>
     <polygon class="fil1" points="6833.88,4921.66 6906.16,4921.66 6906.16,4849.38 6833.88,4849.38 "/>
     <polygon class="fil1" points="7215.93,4921.66 7288.22,4921.66 7288.22,4849.38 7215.93,4849.38 "/>
     <polygon class="fil1" points="7597.98,4921.66 7670.26,4921.66 7670.26,4849.38 7597.98,4849.38 "/>
    </g>
   </g>
  </g>
 </g>
</svg>
