<svg width="213" height="46" viewBox="0 0 213 46" fill="none" xmlns="http://www.w3.org/2000/svg">
<path d="M129.773 0.484253C111.962 0.484253 97.5285 10.6441 97.5285 23.1815C97.5285 35.719 111.965 45.8788 129.773 45.8788C147.581 45.8788 162.017 35.7162 162.017 23.1815C162.017 10.6468 147.581 0.484253 129.773 0.484253ZM129.773 35.2889C117.476 35.2889 108.272 28.8995 108.272 23.1815C108.272 17.4635 117.476 11.0713 129.773 11.0713C142.07 11.0713 151.274 17.4635 151.274 23.1815C151.274 28.8995 142.101 35.2889 129.773 35.2889Z" fill="#757575"/>
<path d="M23.9625 0.484258C11.2431 0.475935 0.927516 10.633 0.919073 23.1676C0.910629 35.7023 11.215 45.8704 23.9315 45.8815C36.648 45.8871 46.9636 35.7328 46.9749 23.1982V23.1704C46.9749 10.6385 36.6705 0.484258 23.9625 0.484258ZM36.2371 23.1676C36.2371 29.8539 30.7429 35.2751 23.9597 35.2834C17.1736 35.2917 11.6625 29.8733 11.6541 23.1815C11.6456 16.4925 17.1426 11.0602 23.9315 11.0547C30.7176 11.0463 36.2286 16.4647 36.2371 23.1538V23.1676Z" fill="#757575"/>
<path d="M59.4015 1.50245C56.069 1.50245 53.2487 4.49047 53.9383 7.89187C54.4449 10.3888 56.8177 12.0923 59.4015 12.0923H74.3951L51.0617 42.4385C50.2934 43.4318 51.0167 44.8633 52.2833 44.8633H88.8876C91.4658 44.8633 93.8442 43.1571 94.3452 40.6629C95.0404 37.2615 92.4143 34.2735 89.0874 34.2735H70.8177L94.1341 3.95224C94.9053 2.94791 94.1819 1.50245 92.8985 1.50245H59.3987H59.4015Z" fill="#757575"/>
<path d="M212.017 6.79876V43.3319C212.017 43.6731 211.898 44.0061 211.684 44.2724C211.155 44.941 210.179 45.0576 209.503 44.5332L180.445 21.7943V39.567C180.445 42.4912 178.041 44.8633 175.069 44.8633C172.097 44.8633 169.693 42.4912 169.693 39.567V3.03114C169.693 2.67879 169.814 2.33477 170.042 2.0601C170.579 1.4109 171.548 1.31379 172.209 1.8437L201.265 24.5715V6.79876C201.265 3.87178 203.671 1.49968 206.641 1.49968C209.61 1.49968 212.017 3.87178 212.017 6.79876Z" fill="#757575"/>
</svg>
