<svg width="26" height="26" viewBox="0 0 26 26" fill="none" xmlns="http://www.w3.org/2000/svg">
<path d="M24.7234 19.4504L18.8638 15.9344C17.9987 15.4153 16.8818 15.7184 16.3949 16.5968L15.2065 18.741C15.1378 18.8647 14.9813 18.9095 14.859 18.8391C11.801 17.0756 8.93897 14.217 7.17092 11.1576C7.10079 11.0364 7.14426 10.8798 7.26765 10.8106L9.41474 9.60561C10.2893 9.11481 10.5848 8.00108 10.069 7.1412L6.55032 1.27658C6.05469 0.450569 4.97275 0.170054 4.13836 0.65146C1.4106 2.22482 1.57422 2.11863 1.47565 2.21649C-1.85352 5.52037 0.675184 13.069 6.80331 19.1974C12.9316 25.3259 20.4818 27.8523 23.7836 24.5252C23.8821 24.4259 23.7772 24.5869 25.3485 21.8625C25.8298 21.0281 25.5495 19.946 24.7234 19.4504Z" fill="#E8E8E8"/>
<path d="M25.7769 3.26994L22.7301 0.223069C22.4327 -0.0743564 21.9503 -0.0743564 21.6529 0.223069L16.8089 5.0673L15.1386 3.3969C14.6852 2.94347 13.9065 3.22124 13.8422 3.85906L13.0044 12.1618C12.9563 12.637 13.3536 13.04 13.8312 12.9968L22.2098 12.2351C22.8523 12.1767 23.1348 11.3934 22.6794 10.9379L20.9328 9.19139L25.7769 4.34717C26.0744 4.04974 26.0744 3.56742 25.7769 3.26994Z" fill="#E8E8E8"/>
</svg>
