<svg width="94" height="94" viewBox="0 0 94 94" fill="none" xmlns="http://www.w3.org/2000/svg">
<circle cx="47" cy="47" r="47" fill="#921813"/>
<path d="M38.85 46.77C38.85 42.95 41.95 39.85 45.77 39.85C49.59 39.85 52.69 42.95 52.69 46.77C52.69 50.59 49.59 53.69 45.77 53.69C41.95 53.69 38.85 50.59 38.85 46.77ZM35.11 46.77C35.11 52.66 39.89 57.44 45.78 57.44C51.67 57.44 56.45 52.66 56.45 46.77C56.45 40.88 51.67 36.1 45.78 36.1C39.89 36.1 35.11 40.88 35.11 46.77ZM54.37 35.68C54.37 37.06 55.49 38.17 56.86 38.17C58.23 38.17 59.35 37.05 59.35 35.68C59.35 34.31 58.23 33.19 56.86 33.19C55.49 33.19 54.37 34.31 54.37 35.68ZM37.38 63.68C35.35 63.59 34.25 63.25 33.52 62.97C32.55 62.59 31.86 62.14 31.13 61.42C30.4 60.69 29.95 60 29.58 59.03C29.29 58.3 28.96 57.2 28.87 55.17C28.77 52.98 28.75 52.32 28.75 46.78C28.75 41.24 28.77 40.58 28.87 38.39C28.96 36.36 29.3 35.27 29.58 34.53C29.96 33.56 30.41 32.87 31.13 32.14C31.86 31.41 32.55 30.96 33.52 30.59C34.25 30.3 35.35 29.97 37.38 29.88C39.57 29.78 40.23 29.76 45.77 29.76C51.31 29.76 51.97 29.78 54.16 29.88C56.19 29.97 57.28 30.31 58.02 30.59C58.99 30.97 59.68 31.42 60.41 32.14C61.14 32.87 61.59 33.56 61.96 34.53C62.25 35.26 62.58 36.36 62.67 38.39C62.77 40.58 62.79 41.24 62.79 46.78C62.79 52.32 62.77 52.98 62.67 55.17C62.58 57.2 62.24 58.3 61.96 59.03C61.58 60 61.13 60.69 60.41 61.42C59.68 62.15 58.99 62.6 58.02 62.97C57.29 63.26 56.19 63.59 54.16 63.68C51.97 63.78 51.31 63.8 45.77 63.8C40.23 63.8 39.57 63.78 37.38 63.68ZM37.21 26.13C35 26.23 33.49 26.58 32.17 27.09C30.8 27.62 29.65 28.33 28.49 29.49C27.34 30.64 26.62 31.8 26.09 33.17C25.58 34.49 25.23 36 25.13 38.21C25.03 40.42 25 41.13 25 46.77C25 52.41 25.02 53.12 25.13 55.33C25.23 57.54 25.58 59.05 26.09 60.37C26.62 61.74 27.33 62.9 28.49 64.05C29.64 65.2 30.8 65.91 32.17 66.45C33.49 66.96 35 67.31 37.21 67.41C39.43 67.51 40.13 67.54 45.77 67.54C51.41 67.54 52.12 67.52 54.33 67.41C56.54 67.31 58.05 66.96 59.37 66.45C60.74 65.92 61.89 65.21 63.05 64.05C64.2 62.9 64.91 61.74 65.45 60.37C65.96 59.05 66.32 57.54 66.41 55.33C66.51 53.11 66.53 52.41 66.53 46.77C66.53 41.13 66.51 40.42 66.41 38.21C66.31 36 65.96 34.49 65.45 33.17C64.92 31.8 64.21 30.65 63.05 29.49C61.9 28.34 60.74 27.62 59.37 27.09C58.05 26.58 56.54 26.22 54.33 26.13C52.12 26.03 51.41 26 45.77 26C40.13 26 39.42 26.02 37.2 26.13" fill="white"/>
</svg>
