<svg width="94" height="94" viewBox="0 0 94 94" fill="none" xmlns="http://www.w3.org/2000/svg">
<circle cx="47" cy="47" r="47" fill="#921813"/>
<path d="M69.5 30.25V39.25L47 48.25L24.5 39.25V30.25C24.5 29.6533 24.7371 29.081 25.159 28.659C25.581 28.2371 26.1533 28 26.75 28H67.25C67.8467 28 68.419 28.2371 68.841 28.659C69.2629 29.081 69.5 29.6533 69.5 30.25ZM24.5 44.0965V61.75C24.5 62.3467 24.7371 62.919 25.159 63.341C25.581 63.7629 26.1533 64 26.75 64H67.25C67.8467 64 68.419 63.7629 68.841 63.341C69.2629 62.919 69.5 62.3467 69.5 61.75V44.0965L47 53.0965L24.5 44.0965Z" fill="white"/>
</svg>
