<svg width="94" height="94" viewBox="0 0 94 94" fill="none" xmlns="http://www.w3.org/2000/svg">
<circle cx="47" cy="47" r="47" fill="#921813"/>
<path d="M39.9884 23.0558C39.8909 23.0918 39.1579 23.4943 38.3635 23.9471C37.5691 24.4035 36.5364 24.9928 36.0706 25.2552C34.9837 25.8697 34.8068 26.0422 34.6913 26.5993C34.6082 26.9802 34.6371 27.0449 35.677 28.8094C37.4102 31.7563 40.9633 37.6249 41.1113 37.7938C41.3063 38.0058 41.588 38.1747 41.8804 38.2502C42.2885 38.3508 42.3029 38.3472 44.2275 37.2475C45.1735 36.7049 46.2243 36.1047 46.5673 35.9143C47.4195 35.4327 47.6433 35.1811 47.7408 34.5846C47.8166 34.121 47.7841 34.0419 46.9789 32.7122C43.2056 26.4986 41.3677 23.4907 41.2738 23.3793C41.0102 23.0666 40.3892 22.9085 39.9884 23.0558Z" fill="white"/>
<path d="M33.3011 27.8785C31.3874 28.4247 30.0802 29.8083 29.4411 31.9718C28.412 35.4469 29.2028 40.9202 31.6112 46.9972C34.0485 53.1425 37.7352 58.9788 41.7577 63.0577C45.2024 66.5472 48.4883 68.4699 51.7777 68.9227C52.2363 68.9874 53.612 68.9874 54.0345 68.9263C54.8217 68.8077 55.5222 68.6208 56.2154 68.3477C56.526 68.2219 56.8546 68.0746 56.8979 68.0386C56.9159 68.0243 53.7492 62.5366 53.3773 61.9472C52.9982 61.3435 52.2544 60.136 51.1025 58.2457C50.4887 57.243 50.597 57.3221 50.0445 57.4586C49.5823 57.57 48.6219 57.5808 48.0766 57.4766C46.8814 57.2574 45.5093 56.5746 44.2853 55.5971C43.7833 55.1982 42.8518 54.2925 42.3823 53.7535C41.671 52.9341 40.9488 51.935 40.3494 50.9324C39.9848 50.3215 39.8042 49.9621 39.5623 49.3511C38.9557 47.8202 38.5801 46.4079 38.396 44.9668C38.3057 44.2552 38.3129 43.0261 38.414 42.3721C38.6054 41.1035 39.0568 40.0469 39.7753 39.1736C39.8837 39.0443 39.9631 38.9293 39.9559 38.9149C39.9486 38.9041 39.7537 38.5735 39.5226 38.1818C38.9159 37.154 38.0277 35.5511 36.5761 32.8738C34.7996 29.5891 33.7741 27.7707 33.7055 27.7743C33.6875 27.7743 33.5033 27.821 33.3011 27.8785Z" fill="white"/>
<path d="M56.7606 52.1503C56.692 52.1791 55.9049 52.6175 55.0094 53.1314C54.1175 53.6453 53.0848 54.2311 52.7165 54.4359C51.9979 54.842 51.7488 55.0433 51.6044 55.338C51.4202 55.7153 51.431 56.1106 51.6296 56.4628C54.1608 60.9334 57.6922 66.9817 57.8908 67.1866C57.9558 67.2512 58.1111 67.3591 58.2411 67.4202C58.4541 67.5244 58.5047 67.5352 58.8188 67.5352H59.1654L59.7396 67.2045C60.0573 67.0248 61.1297 66.4139 62.1227 65.8497C63.1157 65.2819 63.9715 64.7752 64.0292 64.7213C64.1773 64.5847 64.3037 64.3798 64.3831 64.1463C64.4625 63.9198 64.477 63.4311 64.4084 63.237C64.3867 63.1687 64.0473 62.5722 63.6573 61.9109C63.2637 61.2497 62.2021 59.4384 61.2922 57.8859C58.9235 53.843 58.2086 52.6391 58.0894 52.4881C58.0244 52.4055 57.8908 52.3084 57.7428 52.2366C57.537 52.1359 57.4611 52.118 57.1939 52.1108C57.0026 52.1036 56.8401 52.1216 56.7606 52.1503Z" fill="white"/>
</svg>
