<svg width="94" height="94" viewBox="0 0 94 94" fill="none" xmlns="http://www.w3.org/2000/svg">
<circle cx="47" cy="47" r="47" fill="#921813"/>
<path d="M22.6533 45.6905L48.257 34.9961C50.7834 33.8813 59.3543 30.3165 59.3543 30.3165C59.3543 30.3165 63.3069 28.7612 62.9809 32.5462C62.8722 34.1015 61.9893 39.5657 61.1064 45.4566L58.3627 62.9365C58.3627 62.9365 58.1454 65.4965 56.2709 65.937C54.3965 66.3774 51.3268 64.3817 50.7699 63.9275C50.3352 63.5971 42.525 58.5871 39.6726 56.1372C38.8984 55.4628 38.0291 54.1277 39.7813 52.5724C43.7339 48.8975 48.4608 44.3279 51.3132 41.4376C52.6307 40.1025 53.9483 36.9781 48.4608 40.7631L32.9627 51.3474C32.9627 51.3474 31.2105 52.4623 27.9098 51.4575C24.6092 50.4528 20.7652 49.1177 20.7652 49.1177C20.7652 49.1177 18.1301 47.4523 22.6397 45.663L22.6533 45.6905Z" fill="white"/>
</svg>
