<svg width="204" height="52" viewBox="0 0 204 52" fill="none" xmlns="http://www.w3.org/2000/svg">
<path d="M1.82885 29.71C2.98273 20.023 5.14878 10.4564 6.6974 0.819659H12.2036C11.6773 3.80797 11.1307 6.8063 10.6044 9.79461H15.8171C15.4729 11.7701 15.1288 13.7456 14.7846 15.7311H9.57196C8.91405 20.1033 7.65896 24.4152 7.46665 28.8375C8.02334 30.7729 10.6449 30.091 12.1226 30.5924C11.7785 32.5479 11.4344 34.5033 11.0801 36.4587C6.8391 36.7696 1.32277 34.8843 1.82885 29.71Z" fill="#757575"/>
<path d="M101.204 0.839715C103.076 0.819659 104.949 0.809631 106.821 0.809631C104.746 12.6526 102.631 24.4955 100.536 36.3384C98.6633 36.3384 96.7908 36.3384 94.9284 36.3384C97.0033 24.4955 99.139 12.6626 101.204 0.829687V0.839715Z" fill="#757575"/>
<path d="M127.591 26.5813C129.099 17.9974 130.638 9.40352 132.156 0.819659H137.652C137.126 3.80797 136.589 6.8063 136.063 9.79461H141.266C140.921 11.7701 140.577 13.7456 140.243 15.7211C138.502 15.7311 136.761 15.7311 135.02 15.7311C134.352 19.7824 133.411 23.7935 132.915 27.8648C132.348 30.6626 135.871 30.1813 137.571 30.5924C137.227 32.5479 136.893 34.5033 136.539 36.4587C134.079 36.1579 131.296 36.3584 129.271 34.6838C126.943 32.6983 127.095 29.3089 127.591 26.5813Z" fill="#757575"/>
<path d="M18.2058 9.76452C20.3313 9.84475 22.6189 9.47371 24.542 10.6269C27.2242 9.69433 30.0988 9.74447 32.9025 9.76452C32.5685 11.75 32.2244 13.7356 31.8802 15.7211C28.783 16.0721 24.046 14.4676 22.4974 18.1278C20.9791 24.1144 20.2605 30.2816 19.056 36.3384H13.4992C15.0681 27.4838 16.6268 18.6191 18.2058 9.76452Z" fill="#757575"/>
<path d="M35.4734 9.80464C39.8966 9.96508 44.4008 9.45366 48.7734 10.3161C52.1135 11.018 53.5711 14.6882 53.0144 17.7567C52.0832 23.974 50.8382 30.1412 49.8058 36.3384C44.9271 36.2381 40.0383 36.5891 35.1799 36.1378C32.8823 35.9473 30.9187 34.0119 30.8174 31.7055C30.281 27.3233 32.113 21.7278 36.8905 20.4943C40.3116 19.7322 43.8643 20.2035 47.3361 20.0431C47.0324 18.6693 47.9535 16.4832 46.1316 15.9016C42.255 15.5005 38.348 15.8214 34.4511 15.7311C34.7953 13.7556 35.1293 11.7801 35.4734 9.80464ZM36.6172 30.1612C39.4715 30.6325 42.3866 30.3618 45.2713 30.4119C45.5445 28.9478 45.8077 27.4737 46.081 26.0097C43.4595 26.0297 40.8278 25.8793 38.2063 26.11C36.3641 26.3105 35.8074 28.7473 36.6172 30.1612Z" fill="#757575"/>
<path d="M54.5124 9.73444H60.4133C60.8891 15.6208 61.3648 21.5072 61.8405 27.3835C64.5329 21.5172 67.1848 15.6308 69.8468 9.7545C71.9116 9.74447 73.9764 9.73444 76.0413 9.73444C71.942 18.6091 67.8326 27.4637 63.7434 36.3384C61.5976 36.3384 59.4619 36.3384 57.3262 36.3384C56.3647 27.4738 55.4537 18.5991 54.5124 9.72441V9.73444Z" fill="#757575"/>
<path d="M74.27 24.8264C75.3024 19.5517 75.353 11.9406 81.7499 10.1857C85.829 9.66424 90.657 8.95227 94.3008 11.2587C97.5904 15.5406 94.6348 21.2164 94.2603 26.0097C89.3108 26.0097 84.3613 25.9997 79.4118 26.0097C79.3511 27.4336 78.7438 29.0882 80.0292 30.1813C84.2095 30.5924 88.4302 30.2615 92.6308 30.3417C92.317 32.3473 91.983 34.3428 91.6489 36.3384C86.6691 36.0977 81.5374 36.93 76.6587 35.7568C72.2355 33.9518 73.612 28.4665 74.27 24.8264ZM80.4543 20.0632C83.6528 20.0832 86.8512 20.0832 90.0497 20.0632C89.827 18.7395 91.1024 15.7311 88.744 15.8113C86.6994 15.6409 84.6245 15.6108 82.59 15.8916C80.9301 16.5634 81.0718 18.6793 80.4543 20.0632Z" fill="#757575"/>
<path d="M109.018 9.80464C113.552 9.99516 118.198 9.37344 122.652 10.4163C125.749 11.2687 127.014 14.7083 126.559 17.6164C125.638 23.8838 124.372 30.091 123.34 36.3284C118.593 36.2682 113.836 36.5389 109.099 36.188C106.69 36.0977 104.433 34.1924 104.342 31.7256C103.846 27.4938 105.455 22.1389 109.939 20.6448C113.461 19.642 117.206 20.2437 120.83 20.0431C120.627 18.6592 121.508 15.7812 119.17 15.8514C115.445 15.5606 111.71 15.8013 107.975 15.7211C108.319 13.7456 108.664 11.7701 109.018 9.80464ZM110.485 30.2013C113.218 30.6426 116.012 30.3417 118.775 30.4119C119.059 28.9779 119.352 27.5439 119.656 26.11C117.125 25.9997 114.595 25.9094 112.064 26.0598C110.07 25.9194 108.876 29.1885 110.485 30.2013Z" fill="#757575"/>
<path d="M144.515 9.79461C149.049 9.99516 153.685 9.37344 158.149 10.4163C161.226 11.2587 162.511 14.6882 162.056 17.5863C161.388 22.2392 160.426 26.852 159.89 31.525C159.859 30.8933 159.798 29.6097 159.778 28.9779C158.047 28.8977 156.317 28.8275 154.586 28.7673C154.717 28.0754 154.97 26.7016 155.102 26.0097C152.349 26.0398 149.565 25.8091 146.833 26.2002C145.223 26.6715 144.302 30.2013 146.549 30.2916C149.12 30.5623 151.721 30.3919 154.302 30.3618C153.999 32.1768 153.715 33.9818 153.442 35.8069C155.112 35.8571 156.792 35.9373 158.462 35.9674C158.726 35.7167 159.252 35.2253 159.515 34.9746C159.282 35.3356 158.807 36.0476 158.564 36.4086C155.203 36.7395 151.833 36.208 148.462 36.3484C145.608 36.3584 141.893 36.5289 140.334 33.6008C138.968 29.5896 140.011 24.4955 143.361 21.7278C147.146 19.1506 151.984 20.354 156.276 20.0632C156.215 18.579 156.934 15.9417 154.677 15.8314C150.952 15.5807 147.207 15.7913 143.472 15.7311C143.816 13.7556 144.171 11.7801 144.515 9.79461Z" fill="#757575"/>
<path d="M183.159 9.7545C184.991 9.74447 186.823 9.73444 188.666 9.72441C187.714 15.4202 186.54 21.086 185.639 26.8019C185.366 28.1155 185.589 30.081 187.309 30.2214C189.961 30.5423 193.929 30.9334 194.992 27.7646C196.611 21.8682 197.239 15.7512 198.453 9.7545C200.295 9.74447 202.148 9.72441 204 9.71438C202.472 18.5991 200.832 27.4637 199.263 36.3384C194.162 35.7467 189 36.7495 183.949 35.9072C180.69 35.2052 179.536 31.5551 179.961 28.637C180.71 22.2994 182.157 16.052 183.159 9.7545Z" fill="#424242"/>
<path d="M166.479 9.7545C168.301 10.2559 171.57 8.66146 172.238 11.1083C174.971 9.54391 178.179 9.77455 181.216 9.7545C180.882 11.6498 180.639 13.5551 180.173 15.4303C177.228 16.4531 172.653 14.3773 170.912 17.847C169.181 23.8938 168.625 30.2013 167.339 36.3384C165.487 36.3384 163.635 36.3384 161.792 36.3384C163.341 27.4738 164.92 18.6091 166.479 9.74447V9.7545Z" fill="#424242"/>
<path d="M159.272 36.4688H153.351L154.586 28.7673H160.507L159.272 36.4688Z" fill="#424242"/>
<path d="M0.847046 42.3651H2.0819V50.227H2.11226L6.70752 42.3651H8.27638V51.651H7.04154V43.759H7.01117L2.40579 51.651H0.847046V42.3651Z" fill="#757575"/>
<path d="M18.7422 51.651H17.5074V47.3089H12.5579V51.651H11.323V42.3651H12.5579V46.2359H17.5074V42.3651H18.7422V51.651Z" fill="#757575"/>
<path d="M28.287 43.4281H25.1392V51.6409H23.9043V43.4281H20.7565V42.3551H28.287V43.4281Z" fill="#757575"/>
<path d="M36.7893 43.4281H31.5361V46.3362H36.4451V47.3691H31.5361V50.578H36.85V51.651H30.2911V42.3651H36.7791V43.4381L36.7893 43.4281Z" fill="#757575"/>
<path d="M43.2165 42.3651C45.0081 42.3651 46.334 43.1072 46.334 45.0426C46.334 47.1384 44.9676 47.8504 43.1356 47.8504H40.595V51.661H39.3602V42.3752H43.2165V42.3651ZM42.9736 46.8075C44.168 46.8075 45.0891 46.4766 45.0891 45.1128C45.0891 43.6287 44.0263 43.4181 42.8016 43.4181H40.5849V46.8075H42.9736Z" fill="#757575"/>
<path d="M56.2229 51.651H54.9881V47.3089H50.0386V51.651H48.8037V42.3651H50.0386V46.2359H54.9881V42.3651H56.2229V51.651Z" fill="#757575"/>
<path d="M65.7475 43.4281H60.4943V46.3362H65.4033V47.3691H60.4943V50.578H65.8082V51.651H59.2493V42.3651H65.7374V43.4381L65.7475 43.4281Z" fill="#757575"/>
<path d="M74.7659 43.4281H71.6181V51.6409H70.3832V43.4281H67.2354V42.3551H74.7659V43.4281Z" fill="#757575"/>
<path d="M78.5211 48.5724H74.6951V47.4794H78.5211V48.5724Z" fill="#757575"/>
<path d="M82.8937 42.3651L85.9099 50.227L88.8149 42.3651H90.5356V51.651H89.3614V43.8994L86.4261 51.651H85.3431L82.3572 43.8994V51.651H81.173V42.3651H82.8937Z" fill="#757575"/>
<path d="M101.194 51.651H99.8071L98.7645 48.803H94.8272L93.7644 51.651H92.4486L96.1329 42.3651H97.5297L101.194 51.651ZM96.811 43.5384L95.1916 47.8303H98.4001L96.811 43.5384Z" fill="#757575"/>
<path d="M103.086 51.651V42.3651H109.251V43.4381H104.331V51.651H103.086Z" fill="#757575"/>
<path d="M117.378 51.651H115.992L114.949 48.803H111.012L109.949 51.651H108.633L112.317 42.3651H113.714L117.378 51.651ZM112.996 43.5384L111.376 47.8303H114.585L112.996 43.5384Z" fill="#757575"/>
<path d="M122.611 51.8615C120.374 51.8615 118.725 50.8287 118.725 48.5925H119.919C119.97 50.2771 121.204 50.8588 122.712 50.8588C123.998 50.8588 125.02 50.1067 125.02 48.9133C125.02 47.5596 123.897 47.2788 122.652 47.2788C122.389 47.2788 122.004 47.2888 121.812 47.3089V46.2961C122.024 46.3262 122.439 46.3262 122.652 46.3262C123.836 46.3262 124.696 45.925 124.696 44.6615C124.696 43.5183 123.735 43.1774 122.682 43.1774C121.295 43.1774 120.496 43.7289 120.354 45.0727H119.16C119.241 43.0771 120.739 42.1646 122.723 42.1646C124.524 42.1646 125.931 42.9167 125.931 44.6716C125.931 45.6543 125.172 46.4565 124.383 46.6972V46.7373C125.617 46.9679 126.265 47.9507 126.265 48.9635C126.265 50.1067 125.253 51.8816 122.621 51.8816L122.611 51.8615Z" fill="#757575"/>
<path d="M128.775 42.3651H130.01V50.227H130.041L134.636 42.3651H136.205V51.651H134.97V43.759H134.94L130.334 51.651H128.786V42.3651H128.775Z" fill="#757575"/>
<path d="M146.66 51.651H145.426V47.3089H140.476V51.651H139.241V42.3651H140.476V46.2359H145.426V42.3651H146.66V51.651Z" fill="#757575"/>
<path d="M160.831 43.4281H157.683V51.6409H156.448V43.4281H153.3V42.3551H160.831V43.4281Z" fill="#757575"/>
<path d="M161.792 42.3651H163.149L165.892 48.0309L168.574 42.3651H169.9L166.256 49.7557C165.467 51.3501 164.687 51.8716 163.766 51.8716C163.341 51.8716 162.875 51.7512 162.612 51.6409V50.598C162.784 50.6983 163.088 50.8287 163.665 50.8287C164.323 50.8287 164.748 50.2069 165.062 49.5451L165.224 49.2242L161.803 42.3651H161.792Z" fill="#757575"/>
<path d="M175.76 42.3651C177.552 42.3651 178.878 43.1072 178.878 45.0426C178.878 47.1384 177.511 47.8504 175.679 47.8504H173.139V51.661H171.904V42.3752H175.76V42.3651ZM175.517 46.8075C176.712 46.8075 177.633 46.4766 177.633 45.1128C177.633 43.6287 176.57 43.4181 175.345 43.4181H173.129V46.8075H175.517Z" fill="#757575"/>
<path d="M189.789 46.9278C189.789 49.6554 188.271 51.8716 185.295 51.8716C182.319 51.8716 180.801 49.6053 180.801 46.8977C180.801 43.9997 182.552 42.1345 185.275 42.1345C188.18 42.1345 189.779 44.1601 189.779 46.9178L189.789 46.9278ZM182.046 46.988C182.046 49.3145 183.321 50.8086 185.315 50.8086C187.309 50.8086 188.554 49.2944 188.554 46.988C188.554 44.6816 187.279 43.2075 185.285 43.2075C183.068 43.2075 182.046 45.0025 182.046 46.988Z" fill="#757575"/>
<path d="M196.307 42.3651C197.856 42.3651 199.293 42.9768 199.293 44.6916C199.293 45.6041 198.757 46.3863 197.907 46.6872C199.061 46.9479 199.708 47.8103 199.708 49.0337C199.708 51.1696 197.947 51.651 196.156 51.651H192.299V42.3651H196.307ZM193.514 46.3362H195.741C196.793 46.3362 198.059 46.256 198.059 44.8621C198.059 43.4682 196.965 43.398 195.862 43.398H193.524V46.3362H193.514ZM193.514 50.6181H195.994C197.249 50.6181 198.474 50.5379 198.474 48.9133C198.474 47.2888 197.036 47.3089 195.791 47.3089H193.524V50.6181H193.514Z" fill="#757575"/>
</svg>
