<svg width="143" height="44" viewBox="0 0 143 44" fill="none" xmlns="http://www.w3.org/2000/svg">
<path d="M39.8334 0.0794678V43.2069H67.0339V33.0457H52.0652V26.4641H64.4646V16.3027H52.0652V10.2407H67.0339V0.0794678H39.8334Z" fill="#757575"/>
<path d="M17.6597 22.0762H17.5479C17.0452 18.6122 13.359 0.0794678 13.359 0.0794678H0.512778L10.8456 43.2069H23.3008L35.5885 0.0794678H22.4071C22.4071 0.0794678 18.2182 18.6122 17.6597 22.0762Z" fill="#757575"/>
<path d="M95.8561 20.9216L105.574 0.0794678H92.7284L85.9143 15.2636L85.635 0.0794678H73.7383V43.2069H85.635V26.4641L93.622 43.2069H106.692L95.8561 20.9216Z" fill="#757575"/>
<path d="M121.319 28.1383L124.782 9.77882L127.91 28.1383H121.319ZM132.49 0.0794678H117.577L106.686 43.2069H119.309L120.315 37.6644H128.525L129.419 43.2069H142.041L132.49 0.0794678Z" fill="#757575"/>
</svg>
