<svg width="298" height="55" viewBox="0 0 298 55" fill="none" xmlns="http://www.w3.org/2000/svg">
<path d="M90.3109 34.0368C90.3109 38.0867 86.6411 41.0104 81.4738 41.0104H69.3677V15.888H81.0731C86.1138 15.888 89.6359 18.6818 89.6359 22.6018C89.6359 25.2656 88.2861 26.9332 86.2403 27.9078C88.4127 28.7524 90.3109 30.9831 90.3109 34.0585V34.0368ZM74.6615 25.937H80.9254C82.8236 25.937 84.0469 24.8108 84.0469 23.2732C84.0469 21.7355 82.6971 20.4794 80.9254 20.4794H74.6615V25.937ZM81.4738 36.4191C83.5196 36.4191 85.0171 35.163 85.0171 33.3438C85.0171 31.5246 83.6672 30.2684 81.4738 30.2684H74.6826V36.4191H81.4738Z" fill="#757575"/>
<path d="M110.305 40.8805L101.869 30.9615H100.519V40.8805H95.0774V15.888H100.519V25.5255H101.869L110.031 15.888H116.421L106.213 27.9078L117.37 40.9022H110.305V40.8805Z" fill="#757575"/>
<path d="M117.37 28.4492C117.37 20.9125 122.812 15.4549 130.426 15.4549C138.039 15.4549 143.481 20.8909 143.481 28.4492C143.481 36.0076 138.039 41.4436 130.426 41.4436C122.812 41.4436 117.37 36.0076 117.37 28.4492ZM137.765 28.4492C137.765 23.7063 134.77 20.4794 130.426 20.4794C126.081 20.4794 123.086 23.6846 123.086 28.4492C123.086 33.2138 126.081 36.4191 130.426 36.4191C134.77 36.4191 137.765 33.2138 137.765 28.4492Z" fill="#757575"/>
<path d="M164.297 15.888H169.739V40.8805H164.297V30.8315H153.415V40.8805H147.973V15.888H153.415V25.8071H164.297V15.888Z" fill="#757575"/>
<path d="M181.423 40.8805V20.9125H172.987V15.888H195.153V20.9125H186.717V40.8805H181.423Z" fill="#757575"/>
<path d="M218.564 26.9116V40.8805H214.62L213.523 36.9605C212.3 39.0613 209.706 41.4219 205.762 41.4219C200.869 41.4219 197.326 38.0651 197.326 33.4521C197.326 28.8391 200.869 25.6338 208.061 25.6338H213.355C213.08 22.4285 211.456 20.1978 208.462 20.1978C206.015 20.1978 204.391 21.5839 203.568 23.1216L198.675 22.2769C199.899 17.9455 204.117 15.4332 208.736 15.4332C214.726 15.4332 218.522 19.6131 218.522 26.8899L218.564 26.9116ZM213.249 29.9869H208.208C204.138 29.9869 202.767 31.373 202.767 33.1922C202.767 35.2929 204.391 36.679 207.112 36.679C210.655 36.679 213.228 34.0152 213.228 29.9652L213.249 29.9869Z" fill="#757575"/>
<path d="M239.507 40.8805L231.071 30.9615H229.721V40.8805H224.28V15.888H229.721V25.5255H231.071L239.233 15.888H245.624L235.416 27.9078L246.573 40.9022H239.507V40.8805Z" fill="#757575"/>
<path d="M256.359 40.8805V20.9125H247.922V15.888H270.089V20.9125H261.653V40.8805H256.359Z" fill="#757575"/>
<path d="M297.296 29.9869H277.703C278.251 33.9069 280.972 36.4191 285.042 36.4191C287.89 36.4191 290.083 35.163 291.306 33.3438L296.347 34.1884C294.575 38.9314 289.809 41.4436 284.642 41.4436C277.302 41.4436 271.987 36.0076 271.987 28.4492C271.987 20.8909 277.281 15.4549 284.642 15.4549C292.002 15.4549 297.296 20.8909 297.296 28.1677C297.423 28.8607 297.296 29.4238 297.296 29.9869ZM278.125 25.6555H291.58C290.631 22.5801 288.185 20.3494 284.789 20.3494C281.52 20.2195 278.947 22.4502 278.125 25.6555Z" fill="#757575"/>
<path d="M48.298 4.69123C44.6492 0.944519 38.7649 0.944519 27.0173 0.944519H24.9293C13.1818 0.944519 7.29742 0.944519 3.64871 4.69123C0 8.43793 0 14.4803 0 26.5434V28.6875C0 40.7506 0 46.7929 3.64871 50.5396C7.29742 54.2863 13.1818 54.2863 24.9293 54.2863H27.0173C38.7649 54.2863 44.6492 54.2863 48.298 50.5396C51.9467 46.7929 51.9467 40.7506 51.9467 28.6875V26.5434C51.9467 14.4803 51.9467 8.43793 48.298 4.69123ZM37.2675 39.3862C35.9387 35.163 32.6486 31.8927 28.3039 31.4596V39.3862H27.629C15.797 39.3862 9.02687 31.0481 8.75269 17.1875H14.6792C14.869 27.3664 19.2559 31.6762 22.7148 32.5641V17.1875H28.3039V25.9587C31.7206 25.5905 35.3271 21.5839 36.5293 17.1875H42.1183C41.1903 22.6018 37.2886 26.6084 34.5257 28.2543C37.2886 29.5971 41.7387 33.0839 43.426 39.3862H37.2675Z" fill="#757575"/>
</svg>
